<svg width="120" height="120" viewBox="0 0 120 120" fill="none" xmlns="http://www.w3.org/2000/svg">
<path d="M20 0H100C111.046 0 120 8.954 120 20V100C120 111.046 111.046 120 100 120H20C8.954 120 0 111.046 0 100V20C0 8.954 8.954 0 20 0ZM28 63.9463V73.1816H38.8408C39.5768 73.1816 40.0453 73.3819 40.2461 73.7832C40.4468 74.1847 40.3468 74.6204 39.9453 75.0889L35.9297 79.6055L28.8027 95.2646H40.1455L50.083 73.1816H61.7266L51.8896 95.2646H63.2324L73.1699 73.1816H87.1221V63.9463H28ZM57.3105 25L47.373 47.083H33.4199V56.3174H92.6436V47.083H81.7021C81.033 47.083 80.5982 46.882 80.3975 46.4805C80.1968 46.079 80.2968 45.6442 80.6982 45.1758L84.6133 40.6592L91.8398 25H80.3975L70.46 47.083H58.916L68.7529 25H57.3105Z" fill="#7B5BFF"/>
</svg>
